<?xml version="1.0" standalone="no"?>
<!DOCTYPE svg PUBLIC "-//W3C//DTD SVG 20010904//EN"
 "http://www.w3.org/TR/2001/REC-SVG-20010904/DTD/svg10.dtd">
<svg version="1.0" xmlns="http://www.w3.org/2000/svg"
 width="161.000000pt" height="161.000000pt" viewBox="0 0 161.000000 161.000000"
 preserveAspectRatio="xMidYMid meet">
<metadata>
Created by potrace 1.11, written by Peter Selinger 2001-2013
</metadata>
<g transform="translate(0.000000,161.000000) scale(0.100000,-0.100000)"
fill="#000000" stroke="none">
<path d="M1315 1399 c-22 -4 -62 -10 -90 -13 -27 -4 -59 -8 -70 -10 -11 -2
-45 -7 -75 -11 -30 -4 -62 -9 -71 -10 -9 -2 -40 -6 -69 -10 -29 -4 -60 -8 -69
-10 -9 -1 -38 -6 -66 -9 -27 -4 -61 -9 -75 -11 -14 -2 -74 -11 -135 -20 -60
-9 -121 -18 -135 -20 -14 -2 -95 -13 -180 -25 -85 -11 -159 -23 -165 -25 -5
-2 290 -4 658 -4 l667 -1 0 69 c0 104 -28 128 -125 110z"/>
<path d="M84 1192 c-82 -6 -79 15 -80 -485 0 -459 2 -486 41 -501 9 -3 356 -6
770 -6 l754 0 20 26 c21 26 21 37 21 473 0 436 -1 448 -20 469 -13 13 -33 22
-53 23 -116 2 -1420 3 -1453 1z"/>
</g>
</svg>
